<svg width="544" height="110" viewBox="0 0 544 110" fill="none" xmlns="http://www.w3.org/2000/svg">
<path d="M163.969 32.9062C163.708 38.0625 163.487 43.1797 163.305 48.2578C163.122 53.3099 162.992 58.388 162.914 63.4922C163.565 63.5443 164.216 63.5703 164.867 63.5703C165.544 63.5703 166.208 63.5703 166.859 63.5703C167.693 63.5703 168.539 63.5573 169.398 63.5312C170.284 63.5052 171.169 63.4661 172.055 63.4141C172.107 62.2682 172.133 61.1484 172.133 60.0547C172.133 58.9349 172.133 57.7891 172.133 56.6172C172.133 52.6589 172.094 48.7135 172.016 44.7812C171.938 40.849 171.807 36.8906 171.625 32.9062H181.234C180.766 39.1823 180.401 45.4193 180.141 51.6172C179.906 57.7891 179.789 64.013 179.789 70.2891C179.789 73.362 179.828 76.4219 179.906 79.4688C179.984 82.5156 180.089 85.5885 180.219 88.6875H171.312C171.443 85.5885 171.56 82.5026 171.664 79.4297C171.768 76.3568 171.872 73.2839 171.977 70.2109C170.492 70.1328 169.008 70.0677 167.523 70.0156C166.065 69.9375 164.607 69.8984 163.148 69.8984H162.836V77.9453C162.836 79.7682 162.836 81.5651 162.836 83.3359C162.836 85.1068 162.862 86.8906 162.914 88.6875H153.969C154.099 84.9375 154.177 81.2396 154.203 77.5938C154.255 73.9219 154.281 70.237 154.281 66.5391C154.281 55.3411 154.047 44.1302 153.578 32.9062H163.969ZM207.68 87.9453C205.258 88.7786 203.044 89.3255 201.039 89.5859C199.06 89.8464 197.432 89.9766 196.156 89.9766C194.568 89.9766 193.174 89.6641 191.977 89.0391C190.779 88.4141 189.737 87.5807 188.852 86.5391C187.992 85.4974 187.276 84.2995 186.703 82.9453C186.13 81.5651 185.674 80.1198 185.336 78.6094C184.997 77.099 184.75 75.5755 184.594 74.0391C184.464 72.4766 184.398 71.0052 184.398 69.625C184.398 66.1875 184.672 63.0234 185.219 60.1328C185.766 57.2161 186.56 54.7031 187.602 52.5938C188.643 50.4844 189.932 48.8438 191.469 47.6719C193.005 46.474 194.75 45.875 196.703 45.875C198.318 45.875 199.789 46.2786 201.117 47.0859C202.445 47.8932 203.578 49.1302 204.516 50.7969C205.453 52.4635 206.169 54.5859 206.664 57.1641C207.185 59.7161 207.445 62.75 207.445 66.2656C207.445 67.2552 207.419 68.2578 207.367 69.2734C207.341 70.2891 207.276 71.3438 207.172 72.4375L193.344 74.2734C193.448 75.237 193.604 76.1484 193.812 77.0078C194.047 77.8672 194.346 78.6354 194.711 79.3125C195.102 79.9635 195.557 80.4844 196.078 80.875C196.599 81.2656 197.237 81.4609 197.992 81.4609C199.398 81.4609 200.805 81.3828 202.211 81.2266C203.617 81.0443 205.089 80.8359 206.625 80.6016L207.68 87.9453ZM193.109 67.6328L199.594 66.4219V64.9375C199.594 62.724 199.424 61.0182 199.086 59.8203C198.747 58.5964 198.383 57.6979 197.992 57.125C197.523 56.4479 196.99 56.0573 196.391 55.9531C195.635 56.0312 195.036 56.3828 194.594 57.0078C194.151 57.6328 193.812 58.4401 193.578 59.4297C193.37 60.3932 193.24 61.487 193.188 62.7109C193.135 63.9349 193.109 65.1719 193.109 66.4219V67.6328ZM220.414 87.9453C219.737 87.9714 218.969 88.0234 218.109 88.1016C217.38 88.1536 216.521 88.2188 215.531 88.2969C214.568 88.375 213.5 88.4792 212.328 88.6094C212.094 79.7812 211.846 71.9818 211.586 65.2109C211.326 58.4141 211.091 52.6719 210.883 47.9844C210.622 42.5156 210.362 37.763 210.102 33.7266L220.258 33.2578C220.258 39.1432 220.258 44.4427 220.258 49.1562C220.258 53.8438 220.258 58.0234 220.258 61.6953C220.284 65.3411 220.297 68.5312 220.297 71.2656C220.323 73.974 220.336 76.3047 220.336 78.2578C220.362 82.8151 220.388 86.0443 220.414 87.9453ZM243.578 77.3203C243.578 79.638 243.188 81.5781 242.406 83.1406C241.651 84.6771 240.688 85.9141 239.516 86.8516C238.37 87.7891 237.107 88.4661 235.727 88.8828C234.346 89.2734 233.044 89.4688 231.82 89.4688C230.909 89.4427 230.023 89.3385 229.164 89.1562C228.409 89 227.602 88.7656 226.742 88.4531C225.909 88.1146 225.154 87.6328 224.477 87.0078L224.789 78.1016C225.727 78.8568 226.677 79.4427 227.641 79.8594C228.604 80.276 229.49 80.5885 230.297 80.7969C231.234 81.0312 232.146 81.1745 233.031 81.2266C233.76 80.8359 234.32 80.2891 234.711 79.5859C235.128 78.8568 235.336 78.0495 235.336 77.1641C235.336 76.4089 235.154 75.6146 234.789 74.7812C234.451 73.9219 233.917 73.1146 233.188 72.3594C232.458 71.6302 231.586 70.7578 230.57 69.7422C229.581 68.7005 228.617 67.5286 227.68 66.2266C226.768 64.9245 225.987 63.4792 225.336 61.8906C224.711 60.3021 224.398 58.5703 224.398 56.6953C224.398 54.8464 224.646 53.1667 225.141 51.6562C225.661 50.1198 226.378 48.8047 227.289 47.7109C228.227 46.6172 229.333 45.7708 230.609 45.1719C231.911 44.5729 233.331 44.2734 234.867 44.2734C236.117 44.2734 237.471 44.4688 238.93 44.8594C240.388 45.224 241.938 45.8099 243.578 46.6172L242.953 55.7188C242.276 55.1198 241.56 54.638 240.805 54.2734C240.049 53.8828 239.346 53.5833 238.695 53.375C237.94 53.1406 237.198 52.9844 236.469 52.9062C235.479 53.0885 234.633 53.6094 233.93 54.4688C233.227 55.3021 232.875 56.3828 232.875 57.7109C232.875 58.9609 233.122 60.0547 233.617 60.9922C234.138 61.9036 234.776 62.776 235.531 63.6094C236.312 64.4167 237.159 65.237 238.07 66.0703C238.982 66.8776 239.828 67.8021 240.609 68.8438C241.417 69.8854 242.094 71.0833 242.641 72.4375C243.214 73.7917 243.526 75.4193 243.578 77.3203ZM259.32 37.0859C259.32 37.8932 259.19 38.6484 258.93 39.3516C258.669 40.0286 258.279 40.6276 257.758 41.1484C257.237 41.6432 256.573 42.0339 255.766 42.3203C254.984 42.6068 254.06 42.75 252.992 42.75C251.82 42.75 250.831 42.6068 250.023 42.3203C249.242 42.0339 248.591 41.6432 248.07 41.1484C247.576 40.6276 247.211 40.0286 246.977 39.3516C246.768 38.6484 246.664 37.8932 246.664 37.0859C246.664 36.3047 246.781 35.5755 247.016 34.8984C247.25 34.1953 247.615 33.5833 248.109 33.0625C248.63 32.5417 249.294 32.138 250.102 31.8516C250.909 31.5391 251.872 31.3828 252.992 31.3828C254.112 31.3828 255.062 31.5391 255.844 31.8516C256.651 32.138 257.302 32.5417 257.797 33.0625C258.318 33.5833 258.695 34.1953 258.93 34.8984C259.19 35.5755 259.32 36.3047 259.32 37.0859ZM256.977 48.4531C256.82 49.8854 256.69 51.4219 256.586 53.0625C256.482 54.7031 256.391 56.4089 256.312 58.1797C256.234 59.9245 256.182 61.7083 256.156 63.5312C256.13 65.3281 256.117 67.099 256.117 68.8438C256.117 70.875 256.13 72.8411 256.156 74.7422C256.208 76.6172 256.26 78.349 256.312 79.9375C256.391 81.526 256.469 82.9323 256.547 84.1562C256.651 85.3802 256.768 86.3307 256.898 87.0078C255.857 87.0078 254.776 87.0339 253.656 87.0859C252.693 87.138 251.612 87.2031 250.414 87.2812C249.216 87.3594 248.018 87.4766 246.82 87.6328C247.263 82.9453 247.562 78.6615 247.719 74.7812C247.875 70.875 247.953 67.3724 247.953 64.2734C247.953 61.6172 247.901 59.2995 247.797 57.3203C247.719 55.3151 247.628 53.6224 247.523 52.2422C247.419 50.6276 247.289 49.2474 247.133 48.1016C248.591 48.2839 249.919 48.401 251.117 48.4531C252.341 48.5052 253.396 48.5312 254.281 48.5312C254.698 48.5312 255.076 48.5312 255.414 48.5312C255.753 48.5312 256.039 48.5182 256.273 48.4922C256.56 48.4922 256.794 48.4792 256.977 48.4531ZM277.133 88.7656C277.706 84.5729 278.109 80.3281 278.344 76.0312C278.604 71.7344 278.734 67.2292 278.734 62.5156C278.734 60.9271 278.63 59.6641 278.422 58.7266C278.214 57.763 277.94 57.0339 277.602 56.5391C277.263 56.0182 276.898 55.6927 276.508 55.5625C276.117 55.4062 275.74 55.3281 275.375 55.3281C274.854 55.3281 274.359 55.4193 273.891 55.6016C273.448 55.7839 273.031 56.1354 272.641 56.6562C272.25 57.1771 271.885 57.9062 271.547 58.8438C271.234 59.7812 270.961 61.0182 270.727 62.5547C270.492 64.0911 270.31 65.9661 270.18 68.1797C270.076 70.3672 270.023 72.9844 270.023 76.0312C270.023 77.125 270.023 78.2708 270.023 79.4688C270.023 80.6406 270.023 81.7604 270.023 82.8281C270.049 83.8958 270.062 84.8464 270.062 85.6797C270.089 86.487 270.128 87.0599 270.18 87.3984L261.352 87.3203C261.43 84.9505 261.482 82.8411 261.508 80.9922C261.56 79.1172 261.599 77.3984 261.625 75.8359C261.651 74.2734 261.664 72.8151 261.664 71.4609C261.69 70.0807 261.703 68.7266 261.703 67.3984C261.703 66.2005 261.69 64.9766 261.664 63.7266C261.664 62.4505 261.651 61.0833 261.625 59.625C261.625 58.1667 261.599 56.5781 261.547 54.8594C261.521 53.1146 261.482 51.1875 261.43 49.0781L270.57 48.8438L270.414 52.8281C271.117 51.5 271.872 50.4453 272.68 49.6641C273.487 48.8568 274.281 48.2318 275.062 47.7891C275.87 47.3464 276.651 47.0599 277.406 46.9297C278.161 46.7734 278.839 46.6953 279.438 46.6953C281.052 46.6953 282.38 47.2552 283.422 48.375C284.464 49.4948 285.284 50.9922 285.883 52.8672C286.508 54.7161 286.938 56.8385 287.172 59.2344C287.406 61.6302 287.523 64.1172 287.523 66.6953C287.523 68.5703 287.471 70.4714 287.367 72.3984C287.289 74.3255 287.185 76.2266 287.055 78.1016C286.951 79.9505 286.82 81.7474 286.664 83.4922C286.534 85.2109 286.417 86.8125 286.312 88.2969L277.133 88.7656ZM314.867 48.6875C313.435 52.3073 312.185 55.4062 311.117 57.9844C310.049 60.5625 309.125 62.737 308.344 64.5078C307.589 66.2786 306.964 67.6979 306.469 68.7656C305.974 69.8333 305.57 70.6536 305.258 71.2266C305.935 72.7109 307.003 74.9115 308.461 77.8281C309.919 80.7448 311.872 84.4167 314.32 88.8438L304.945 89.4688L299.125 75.4844C299.125 76.6302 299.125 77.9323 299.125 79.3906C299.151 80.849 299.177 82.2812 299.203 83.6875C299.229 85.0677 299.268 86.3307 299.32 87.4766C299.372 88.6224 299.438 89.4557 299.516 89.9766H297.289C296.612 89.9766 295.779 89.9766 294.789 89.9766C293.826 90.0026 292.758 90.0547 291.586 90.1328C291.794 87.2161 291.964 84.3646 292.094 81.5781C292.224 78.7917 292.315 76.2917 292.367 74.0781C292.445 71.5 292.484 69.0651 292.484 66.7734C292.458 64.2214 292.393 61.2786 292.289 57.9453C292.185 55.0807 292.029 51.6042 291.82 47.5156C291.612 43.4271 291.326 38.7786 290.961 33.5703C294.164 33.7266 296.638 33.8047 298.383 33.8047C298.799 33.8047 299.164 33.8047 299.477 33.8047C299.815 33.8047 300.102 33.7917 300.336 33.7656C300.622 33.7656 300.857 33.7526 301.039 33.7266C300.831 38.2578 300.661 42.2943 300.531 45.8359C300.401 49.3516 300.297 52.4245 300.219 55.0547C300.141 57.6849 300.076 59.8854 300.023 61.6562C299.997 63.4271 299.984 64.8333 299.984 65.875C301.026 62.9844 302.042 60.0417 303.031 57.0469C304.021 54.026 304.958 50.7839 305.844 47.3203L314.867 48.6875ZM329.086 37.0859C329.086 37.8932 328.956 38.6484 328.695 39.3516C328.435 40.0286 328.044 40.6276 327.523 41.1484C327.003 41.6432 326.339 42.0339 325.531 42.3203C324.75 42.6068 323.826 42.75 322.758 42.75C321.586 42.75 320.596 42.6068 319.789 42.3203C319.008 42.0339 318.357 41.6432 317.836 41.1484C317.341 40.6276 316.977 40.0286 316.742 39.3516C316.534 38.6484 316.43 37.8932 316.43 37.0859C316.43 36.3047 316.547 35.5755 316.781 34.8984C317.016 34.1953 317.38 33.5833 317.875 33.0625C318.396 32.5417 319.06 32.138 319.867 31.8516C320.674 31.5391 321.638 31.3828 322.758 31.3828C323.878 31.3828 324.828 31.5391 325.609 31.8516C326.417 32.138 327.068 32.5417 327.562 33.0625C328.083 33.5833 328.461 34.1953 328.695 34.8984C328.956 35.5755 329.086 36.3047 329.086 37.0859ZM326.742 48.4531C326.586 49.8854 326.456 51.4219 326.352 53.0625C326.247 54.7031 326.156 56.4089 326.078 58.1797C326 59.9245 325.948 61.7083 325.922 63.5312C325.896 65.3281 325.883 67.099 325.883 68.8438C325.883 70.875 325.896 72.8411 325.922 74.7422C325.974 76.6172 326.026 78.349 326.078 79.9375C326.156 81.526 326.234 82.9323 326.312 84.1562C326.417 85.3802 326.534 86.3307 326.664 87.0078C325.622 87.0078 324.542 87.0339 323.422 87.0859C322.458 87.138 321.378 87.2031 320.18 87.2812C318.982 87.3594 317.784 87.4766 316.586 87.6328C317.029 82.9453 317.328 78.6615 317.484 74.7812C317.641 70.875 317.719 67.3724 317.719 64.2734C317.719 61.6172 317.667 59.2995 317.562 57.3203C317.484 55.3151 317.393 53.6224 317.289 52.2422C317.185 50.6276 317.055 49.2474 316.898 48.1016C318.357 48.2839 319.685 48.401 320.883 48.4531C322.107 48.5052 323.161 48.5312 324.047 48.5312C324.464 48.5312 324.841 48.5312 325.18 48.5312C325.518 48.5312 325.805 48.5182 326.039 48.4922C326.326 48.4922 326.56 48.4792 326.742 48.4531ZM366.508 88.0234C365.492 88.4922 364.49 88.8438 363.5 89.0781C362.51 89.3385 361.625 89.5339 360.844 89.6641C359.932 89.7943 359.047 89.8724 358.188 89.8984C357.25 89.8984 356.234 89.7292 355.141 89.3906C354.073 89.0521 352.992 88.4792 351.898 87.6719C350.805 86.8385 349.75 85.7188 348.734 84.3125C347.719 82.8802 346.82 81.0964 346.039 78.9609C345.258 76.7995 344.633 74.2214 344.164 71.2266C343.695 68.2318 343.461 64.7422 343.461 60.7578C343.461 56.7734 343.734 53.2969 344.281 50.3281C344.854 47.3594 345.583 44.8203 346.469 42.7109C347.38 40.5755 348.396 38.8307 349.516 37.4766C350.661 36.0964 351.82 35.0156 352.992 34.2344C354.164 33.4271 355.297 32.8802 356.391 32.5938C357.51 32.2812 358.474 32.125 359.281 32.125C360.036 32.151 360.779 32.2292 361.508 32.3594C362.133 32.4896 362.784 32.6849 363.461 32.9453C364.164 33.2057 364.776 33.5703 365.297 34.0391L364.516 41.8906C363.786 41.526 363.096 41.2656 362.445 41.1094C361.82 40.9271 361.221 40.8359 360.648 40.8359C359.555 40.8359 358.578 41.1354 357.719 41.7344C356.885 42.3073 356.156 43.0755 355.531 44.0391C354.932 45.0026 354.411 46.0964 353.969 47.3203C353.552 48.5443 353.214 49.7943 352.953 51.0703C352.302 54.0651 351.938 57.4766 351.859 61.3047C351.938 65.1068 352.315 68.4922 352.992 71.4609C353.279 72.737 353.63 73.987 354.047 75.2109C354.49 76.4089 355.023 77.4896 355.648 78.4531C356.273 79.3906 357.003 80.1458 357.836 80.7188C358.695 81.2917 359.685 81.5781 360.805 81.5781C362.029 81.5781 363.448 81.1484 365.062 80.2891L366.508 88.0234ZM381.117 37.0859C381.117 37.8932 380.987 38.6484 380.727 39.3516C380.466 40.0286 380.076 40.6276 379.555 41.1484C379.034 41.6432 378.37 42.0339 377.562 42.3203C376.781 42.6068 375.857 42.75 374.789 42.75C373.617 42.75 372.628 42.6068 371.82 42.3203C371.039 42.0339 370.388 41.6432 369.867 41.1484C369.372 40.6276 369.008 40.0286 368.773 39.3516C368.565 38.6484 368.461 37.8932 368.461 37.0859C368.461 36.3047 368.578 35.5755 368.812 34.8984C369.047 34.1953 369.411 33.5833 369.906 33.0625C370.427 32.5417 371.091 32.138 371.898 31.8516C372.706 31.5391 373.669 31.3828 374.789 31.3828C375.909 31.3828 376.859 31.5391 377.641 31.8516C378.448 32.138 379.099 32.5417 379.594 33.0625C380.115 33.5833 380.492 34.1953 380.727 34.8984C380.987 35.5755 381.117 36.3047 381.117 37.0859ZM378.773 48.4531C378.617 49.8854 378.487 51.4219 378.383 53.0625C378.279 54.7031 378.188 56.4089 378.109 58.1797C378.031 59.9245 377.979 61.7083 377.953 63.5312C377.927 65.3281 377.914 67.099 377.914 68.8438C377.914 70.875 377.927 72.8411 377.953 74.7422C378.005 76.6172 378.057 78.349 378.109 79.9375C378.188 81.526 378.266 82.9323 378.344 84.1562C378.448 85.3802 378.565 86.3307 378.695 87.0078C377.654 87.0078 376.573 87.0339 375.453 87.0859C374.49 87.138 373.409 87.2031 372.211 87.2812C371.013 87.3594 369.815 87.4766 368.617 87.6328C369.06 82.9453 369.359 78.6615 369.516 74.7812C369.672 70.875 369.75 67.3724 369.75 64.2734C369.75 61.6172 369.698 59.2995 369.594 57.3203C369.516 55.3151 369.424 53.6224 369.32 52.2422C369.216 50.6276 369.086 49.2474 368.93 48.1016C370.388 48.2839 371.716 48.401 372.914 48.4531C374.138 48.5052 375.193 48.5312 376.078 48.5312C376.495 48.5312 376.872 48.5312 377.211 48.5312C377.549 48.5312 377.836 48.5182 378.07 48.4922C378.357 48.4922 378.591 48.4792 378.773 48.4531ZM396.781 36.2656C396.573 38.375 396.391 40.4323 396.234 42.4375C396.078 44.4167 395.935 46.3958 395.805 48.375C396.794 48.3229 397.771 48.2839 398.734 48.2578C399.724 48.2057 400.727 48.1276 401.742 48.0234L401.469 55.9531C400.479 55.901 399.464 55.875 398.422 55.875C397.406 55.875 396.404 55.875 395.414 55.875C395.206 59.625 395.049 63.2969 394.945 66.8906C394.867 70.4583 394.828 74.0651 394.828 77.7109C394.828 79.5859 394.841 81.474 394.867 83.375C394.919 85.25 394.971 87.151 395.023 89.0781L386.43 89.2344C386.612 83.6354 386.768 78.1016 386.898 72.6328C387.029 67.138 387.094 61.6042 387.094 56.0312C386.104 56.0833 385.102 56.1354 384.086 56.1875C383.07 56.2135 382.068 56.2656 381.078 56.3438L381.391 47.7891C382.302 47.9193 383.24 48.0234 384.203 48.1016C385.167 48.1797 386.104 48.2448 387.016 48.2969C387.016 46.2656 386.99 44.2734 386.938 42.3203C386.911 40.3672 386.859 38.375 386.781 36.3438L396.781 36.2656ZM427.797 48.5312C428.031 54.1562 428.214 59.8203 428.344 65.5234C428.5 71.2005 428.578 76.9948 428.578 82.9062C428.578 86.6562 428.422 89.7943 428.109 92.3203C427.797 94.8464 427.172 96.8776 426.234 98.4141C425.297 99.9766 423.956 101.083 422.211 101.734C420.466 102.411 418.161 102.75 415.297 102.75C413.839 102.75 412.159 102.685 410.258 102.555C408.357 102.424 406.195 102.203 403.773 101.891L404.086 93.3359C405.987 93.4661 407.68 93.5703 409.164 93.6484C410.648 93.7266 411.885 93.7917 412.875 93.8438C414.047 93.9219 415.062 93.9609 415.922 93.9609C416.547 93.9609 417.081 93.8828 417.523 93.7266C417.966 93.5964 418.318 93.3359 418.578 92.9453C418.865 92.5807 419.073 92.0599 419.203 91.3828C419.333 90.7057 419.398 89.8333 419.398 88.7656C419.398 88.4271 419.398 88.0885 419.398 87.75C419.398 87.3854 419.372 86.9818 419.32 86.5391C418.904 87.1641 418.422 87.6589 417.875 88.0234C417.354 88.388 416.833 88.6745 416.312 88.8828C415.792 89.0911 415.284 89.2214 414.789 89.2734C414.32 89.3516 413.93 89.3906 413.617 89.3906C411.508 89.3906 409.802 88.9609 408.5 88.1016C407.198 87.2422 406.182 86.0703 405.453 84.5859C404.75 83.1016 404.268 81.3698 404.008 79.3906C403.747 77.3854 403.617 75.25 403.617 72.9844C403.617 71.9688 403.604 71.2917 403.578 70.9531C403.578 70.5885 403.565 70.3672 403.539 70.2891C403.539 70.2109 403.539 70.1849 403.539 70.2109C403.539 70.2109 403.552 70.0807 403.578 69.8203C403.604 69.5339 403.643 69.013 403.695 68.2578C403.747 67.5026 403.826 66.3177 403.93 64.7031C404.034 63.0885 404.151 60.9661 404.281 58.3359C404.438 55.6797 404.62 52.3073 404.828 48.2188L413.852 49C413.93 49 413.878 49.5078 413.695 50.5234C413.539 51.513 413.344 52.9323 413.109 54.7812C412.901 56.6042 412.693 58.8047 412.484 61.3828C412.276 63.9609 412.172 66.8255 412.172 69.9766C412.172 71.8516 412.263 73.4531 412.445 74.7812C412.654 76.0833 412.927 77.151 413.266 77.9844C413.604 78.8177 414.008 79.4297 414.477 79.8203C414.971 80.1849 415.518 80.3672 416.117 80.3672C417.159 80.3672 418.018 79.5599 418.695 77.9453C419.372 76.3047 419.711 73.7005 419.711 70.1328C419.711 69.8984 419.698 69.638 419.672 69.3516C419.672 69.0391 419.659 68.5964 419.633 68.0234C419.633 67.4245 419.607 66.6562 419.555 65.7188C419.503 64.7812 419.424 63.5443 419.32 62.0078C419.242 60.4453 419.138 58.5573 419.008 56.3438C418.904 54.1042 418.76 51.4219 418.578 48.2969L427.797 48.5312ZM471 48.375C471 49.9896 470.818 51.6562 470.453 53.375C470.115 55.0938 469.568 56.7474 468.812 58.3359C468.083 59.9245 467.146 61.3828 466 62.7109C464.854 64.0391 463.487 65.1198 461.898 65.9531C463.435 66.6302 464.646 67.4766 465.531 68.4922C466.443 69.5078 467.133 70.5625 467.602 71.6562C468.07 72.724 468.37 73.7526 468.5 74.7422C468.63 75.7057 468.695 76.487 468.695 77.0859C468.695 79.0651 468.396 80.7708 467.797 82.2031C467.224 83.6094 466.482 84.8073 465.57 85.7969C464.659 86.7604 463.63 87.5417 462.484 88.1406C461.365 88.7135 460.245 89.1562 459.125 89.4688C458.031 89.7812 457.003 89.9766 456.039 90.0547C455.076 90.1589 454.307 90.2109 453.734 90.2109C453.005 90.1849 452.263 90.1198 451.508 90.0156C450.857 89.9115 450.154 89.7552 449.398 89.5469C448.669 89.3646 448.005 89.0781 447.406 88.6875C447.562 83.7396 447.641 78.8047 447.641 73.8828C447.641 67.1901 447.484 60.5755 447.172 54.0391C446.885 47.5026 446.456 40.9141 445.883 34.2734C447.081 33.9089 448.266 33.6224 449.438 33.4141C450.635 33.2057 451.716 33.0495 452.68 32.9453C453.799 32.8411 454.867 32.776 455.883 32.75C456.69 32.75 457.615 32.8542 458.656 33.0625C459.724 33.2448 460.818 33.5833 461.938 34.0781C463.057 34.5469 464.151 35.1719 465.219 35.9531C466.312 36.7083 467.289 37.6719 468.148 38.8438C469.008 39.9896 469.698 41.3568 470.219 42.9453C470.74 44.5078 471 46.3177 471 48.375ZM463.422 50.1328C463.422 50.1589 463.422 49.9375 463.422 49.4688C463.422 48.974 463.357 48.362 463.227 47.6328C463.122 46.8776 462.927 46.0573 462.641 45.1719C462.38 44.2865 461.977 43.4531 461.43 42.6719C460.883 41.8906 460.167 41.2135 459.281 40.6406C458.422 40.0417 457.341 39.6771 456.039 39.5469C455.883 43.8438 455.727 48.1276 455.57 52.3984C455.44 56.6693 455.336 60.9531 455.258 65.25C456.195 64.9115 457.029 64.4297 457.758 63.8047C458.513 63.1797 459.164 62.4896 459.711 61.7344C460.284 60.9531 460.766 60.1328 461.156 59.2734C461.547 58.388 461.885 57.5156 462.172 56.6562C462.823 54.651 463.24 52.4766 463.422 50.1328ZM461.234 76.0312C461.182 74.7552 460.922 73.5964 460.453 72.5547C460.245 72.112 459.997 71.6693 459.711 71.2266C459.424 70.7578 459.06 70.3411 458.617 69.9766C458.201 69.5859 457.706 69.2604 457.133 69C456.56 68.7135 455.909 68.5052 455.18 68.375C455.102 71.1094 455.036 73.8307 454.984 76.5391C454.932 79.2214 454.906 81.9297 454.906 84.6641C455.688 84.3776 456.378 84.0391 456.977 83.6484C457.576 83.2318 458.096 82.8021 458.539 82.3594C458.982 81.8906 459.346 81.4089 459.633 80.9141C459.945 80.4193 460.206 79.9375 460.414 79.4688C460.883 78.375 461.156 77.2292 461.234 76.0312ZM486.352 37.0859C486.352 37.8932 486.221 38.6484 485.961 39.3516C485.701 40.0286 485.31 40.6276 484.789 41.1484C484.268 41.6432 483.604 42.0339 482.797 42.3203C482.016 42.6068 481.091 42.75 480.023 42.75C478.852 42.75 477.862 42.6068 477.055 42.3203C476.273 42.0339 475.622 41.6432 475.102 41.1484C474.607 40.6276 474.242 40.0286 474.008 39.3516C473.799 38.6484 473.695 37.8932 473.695 37.0859C473.695 36.3047 473.812 35.5755 474.047 34.8984C474.281 34.1953 474.646 33.5833 475.141 33.0625C475.661 32.5417 476.326 32.138 477.133 31.8516C477.94 31.5391 478.904 31.3828 480.023 31.3828C481.143 31.3828 482.094 31.5391 482.875 31.8516C483.682 32.138 484.333 32.5417 484.828 33.0625C485.349 33.5833 485.727 34.1953 485.961 34.8984C486.221 35.5755 486.352 36.3047 486.352 37.0859ZM484.008 48.4531C483.852 49.8854 483.721 51.4219 483.617 53.0625C483.513 54.7031 483.422 56.4089 483.344 58.1797C483.266 59.9245 483.214 61.7083 483.188 63.5312C483.161 65.3281 483.148 67.099 483.148 68.8438C483.148 70.875 483.161 72.8411 483.188 74.7422C483.24 76.6172 483.292 78.349 483.344 79.9375C483.422 81.526 483.5 82.9323 483.578 84.1562C483.682 85.3802 483.799 86.3307 483.93 87.0078C482.888 87.0078 481.807 87.0339 480.688 87.0859C479.724 87.138 478.643 87.2031 477.445 87.2812C476.247 87.3594 475.049 87.4766 473.852 87.6328C474.294 82.9453 474.594 78.6615 474.75 74.7812C474.906 70.875 474.984 67.3724 474.984 64.2734C474.984 61.6172 474.932 59.2995 474.828 57.3203C474.75 55.3151 474.659 53.6224 474.555 52.2422C474.451 50.6276 474.32 49.2474 474.164 48.1016C475.622 48.2839 476.951 48.401 478.148 48.4531C479.372 48.5052 480.427 48.5312 481.312 48.5312C481.729 48.5312 482.107 48.5312 482.445 48.5312C482.784 48.5312 483.07 48.5182 483.305 48.4922C483.591 48.4922 483.826 48.4792 484.008 48.4531ZM511.273 48.6875C509.841 52.3073 508.591 55.4062 507.523 57.9844C506.456 60.5625 505.531 62.737 504.75 64.5078C503.995 66.2786 503.37 67.6979 502.875 68.7656C502.38 69.8333 501.977 70.6536 501.664 71.2266C502.341 72.7109 503.409 74.9115 504.867 77.8281C506.326 80.7448 508.279 84.4167 510.727 88.8438L501.352 89.4688L495.531 75.4844C495.531 76.6302 495.531 77.9323 495.531 79.3906C495.557 80.849 495.583 82.2812 495.609 83.6875C495.635 85.0677 495.674 86.3307 495.727 87.4766C495.779 88.6224 495.844 89.4557 495.922 89.9766H493.695C493.018 89.9766 492.185 89.9766 491.195 89.9766C490.232 90.0026 489.164 90.0547 487.992 90.1328C488.201 87.2161 488.37 84.3646 488.5 81.5781C488.63 78.7917 488.721 76.2917 488.773 74.0781C488.852 71.5 488.891 69.0651 488.891 66.7734C488.865 64.2214 488.799 61.2786 488.695 57.9453C488.591 55.0807 488.435 51.6042 488.227 47.5156C488.018 43.4271 487.732 38.7786 487.367 33.5703C490.57 33.7266 493.044 33.8047 494.789 33.8047C495.206 33.8047 495.57 33.8047 495.883 33.8047C496.221 33.8047 496.508 33.7917 496.742 33.7656C497.029 33.7656 497.263 33.7526 497.445 33.7266C497.237 38.2578 497.068 42.2943 496.938 45.8359C496.807 49.3516 496.703 52.4245 496.625 55.0547C496.547 57.6849 496.482 59.8854 496.43 61.6562C496.404 63.4271 496.391 64.8333 496.391 65.875C497.432 62.9844 498.448 60.0417 499.438 57.0469C500.427 54.026 501.365 50.7839 502.25 47.3203L511.273 48.6875ZM535.102 87.9453C532.68 88.7786 530.466 89.3255 528.461 89.5859C526.482 89.8464 524.854 89.9766 523.578 89.9766C521.99 89.9766 520.596 89.6641 519.398 89.0391C518.201 88.4141 517.159 87.5807 516.273 86.5391C515.414 85.4974 514.698 84.2995 514.125 82.9453C513.552 81.5651 513.096 80.1198 512.758 78.6094C512.419 77.099 512.172 75.5755 512.016 74.0391C511.885 72.4766 511.82 71.0052 511.82 69.625C511.82 66.1875 512.094 63.0234 512.641 60.1328C513.188 57.2161 513.982 54.7031 515.023 52.5938C516.065 50.4844 517.354 48.8438 518.891 47.6719C520.427 46.474 522.172 45.875 524.125 45.875C525.74 45.875 527.211 46.2786 528.539 47.0859C529.867 47.8932 531 49.1302 531.938 50.7969C532.875 52.4635 533.591 54.5859 534.086 57.1641C534.607 59.7161 534.867 62.75 534.867 66.2656C534.867 67.2552 534.841 68.2578 534.789 69.2734C534.763 70.2891 534.698 71.3438 534.594 72.4375L520.766 74.2734C520.87 75.237 521.026 76.1484 521.234 77.0078C521.469 77.8672 521.768 78.6354 522.133 79.3125C522.523 79.9635 522.979 80.4844 523.5 80.875C524.021 81.2656 524.659 81.4609 525.414 81.4609C526.82 81.4609 528.227 81.3828 529.633 81.2266C531.039 81.0443 532.51 80.8359 534.047 80.6016L535.102 87.9453ZM520.531 67.6328L527.016 66.4219V64.9375C527.016 62.724 526.846 61.0182 526.508 59.8203C526.169 58.5964 525.805 57.6979 525.414 57.125C524.945 56.4479 524.411 56.0573 523.812 55.9531C523.057 56.0312 522.458 56.3828 522.016 57.0078C521.573 57.6328 521.234 58.4401 521 59.4297C520.792 60.3932 520.661 61.487 520.609 62.7109C520.557 63.9349 520.531 65.1719 520.531 66.4219V67.6328Z" fill="#FF9F1C"/>
<path fill-rule="evenodd" clip-rule="evenodd" d="M97.2262 42.8326H64.339L61.2718 35.7176C65.044 34.5253 68.6389 33.2214 70.3315 32.1414C72.411 30.8002 72.9398 29.0126 72.9398 27.9326C72.9398 26.8525 72.411 25.0275 70.3315 23.7237C67.8285 22.1223 61.0257 19.9987 55.6673 18.5462C53.059 17.8386 50.2744 18.4714 48.124 20.2225C45.9735 21.9735 44.7398 24.6925 44.7398 27.5611V28.381C44.7398 31.2496 45.9735 33.931 48.124 35.7196C49.8865 37.1722 52.1068 37.8432 54.3282 37.6196L57.994 46.1871L50.1336 55.537C45.5866 52.222 40.0874 50.322 34.1658 50.322C18.6195 50.283 6 63.6182 6 80.0837C6 96.5493 18.6191 109.884 34.2 109.884C48.5816 109.884 60.4623 98.485 62.1885 83.8087H66.5239C67.6868 87.2725 70.4368 89.955 73.8555 90.8862L75.23 95.2074C73.9255 95.7662 72.9742 97.1074 72.9742 98.6713C72.9742 100.72 74.5605 102.396 76.4993 102.396H83.5493C85.488 102.396 87.0743 100.72 87.0743 98.6713C87.0743 96.6225 85.488 94.9463 83.5493 94.9463H82.5626L81.0471 90.1412C84.6076 88.3536 87.0751 84.5163 87.0751 80.0463C87.0751 78.0349 86.5818 76.1725 85.7005 74.5337L101.634 52.073L103.149 55.2392C95.606 60.603 90.6001 69.6918 90.6001 80.0116C90.6001 96.4765 103.219 109.812 118.8 109.812C134.381 109.812 147 96.4765 147 80.0116C147 63.5466 134.381 50.2116 118.8 50.2116C115.522 50.2116 112.384 50.8077 109.423 51.8878L107.661 48.1254C109.459 47.7154 111.115 46.7842 112.455 45.3691C114.253 43.4691 115.275 40.8616 115.275 38.1802C115.275 35.014 113.901 31.9965 111.538 30.0602C109.176 28.1228 106.075 27.4152 103.149 28.1977L98.7785 29.3526L98.5315 28.8313C99.3773 28.0488 100.329 27.0436 101.14 26.0375C102.233 24.6589 103.149 23.1688 103.572 21.8287C104.241 19.6686 103.995 17.6937 102.796 16.0549C101.703 14.5649 99.2355 13 94.1597 13H76.5347C74.596 13 73.0097 14.6763 73.0097 16.725C73.0097 18.7738 74.596 20.45 76.5347 20.45H94.1597C94.8647 20.45 95.5697 20.5248 96.1693 20.6363C95.8522 21.1202 95.4643 21.6789 95.1118 22.0148C93.631 23.6537 92.0447 24.9199 92.0447 24.9199C90.6701 26 90.2468 27.9374 91.0226 29.5762L97.2967 42.7999L97.2262 42.8326ZM45.4087 61.1225C42.1653 58.9625 38.3232 57.7326 34.1996 57.7326C22.5316 57.7326 13.0496 67.7526 13.0496 80.0826C13.0496 92.4125 22.5316 102.433 34.1996 102.433C44.6693 102.433 53.3754 94.3864 55.0676 83.8076H34.1996C32.825 83.8076 31.5559 82.9512 30.9916 81.61C30.4274 80.2689 30.6392 78.705 31.5558 77.6239L45.4087 61.1589L45.4087 61.1225ZM106.321 62.0164C101.069 66.0764 97.649 72.6701 97.649 80.0452C97.649 92.3751 107.131 102.395 118.799 102.395C130.467 102.395 139.949 92.3751 139.949 80.0452C139.949 67.7152 130.467 57.6952 118.799 57.6952C116.649 57.6952 114.569 58.0302 112.63 58.6638L121.972 78.3689C122.853 80.1939 122.148 82.4664 120.385 83.3601C118.658 84.2914 116.508 83.5464 115.662 81.6839L106.321 61.9789V62.0164ZM118.799 91.2204C113.969 91.2204 109.916 87.7929 108.647 83.1367C108.119 81.1628 106.144 80.0079 104.277 80.6041C102.409 81.1629 101.316 83.2491 101.88 85.2229C103.995 92.9705 110.798 98.6704 118.8 98.6704C120.739 98.6704 122.325 96.9941 122.325 94.9454C122.325 92.8966 120.739 91.2204 118.8 91.2204H118.799ZM39.5912 89.6555C38.005 90.6616 36.1716 91.2204 34.1984 91.2204C31.5546 91.2204 29.158 90.1777 27.2892 88.5015C25.8084 87.1604 23.5879 87.3092 22.3187 88.874C21.0496 90.4389 21.2258 92.7853 22.6712 94.1265C25.7728 96.9577 29.7921 98.6714 34.1984 98.6714C37.4762 98.6714 40.5788 97.7028 43.2226 96.0639C44.8797 95.0213 45.4429 92.7114 44.4563 90.9603C43.4697 89.2092 41.2838 88.6139 39.6267 89.6565L39.5912 89.6555ZM121.371 69.2055C125.954 70.4344 129.338 74.8304 129.338 80.0454C129.338 82.0942 130.924 83.7704 132.863 83.7704C134.802 83.7704 136.388 82.0942 136.388 80.0454C136.388 71.3292 130.713 64.0279 123.098 61.9792C121.195 61.4579 119.292 62.6868 118.833 64.6616C118.34 66.673 119.502 68.6842 121.371 69.1691V69.2055ZM76.5332 83.7704C78.472 83.7704 80.0228 82.0942 80.0228 80.0454C80.0228 77.9967 78.4365 76.3204 76.4978 76.3204C74.559 76.3204 72.9728 77.9967 72.9728 80.0454C72.9728 82.0942 74.5236 83.733 76.4623 83.7704H76.5678H76.5332ZM24.1517 76.5442C25.2447 73.0429 27.9583 70.2866 31.3425 69.2804C33.2105 68.7217 34.3033 66.6729 33.7746 64.6991C33.2458 62.7252 31.3071 61.5703 29.4392 62.1291C23.7992 63.8053 19.2876 68.3502 17.4542 74.1978C16.8547 76.1352 17.8421 78.2579 19.6746 78.8916C21.5079 79.5251 23.5166 78.4816 24.1163 76.5452L24.1517 76.5442ZM69.167 71.9992L61.2358 53.523L55.4195 60.4143C59.0498 64.7729 61.4829 70.2481 62.1879 76.3204H66.5233C67.0874 74.6816 68.0041 73.1917 69.167 71.9992V71.9992ZM42.0608 76.3204L50.697 66.0392C52.9174 68.9443 54.4692 72.4467 55.0678 76.3204H42.0608ZM67.5818 50.2455L75.6184 68.9079C75.9355 68.9079 76.2179 68.8705 76.535 68.8705C77.9096 68.8705 79.2142 69.1316 80.4125 69.6529L94.16 50.2455H67.5818ZM104.278 40.933H105.688C106.358 40.933 107.027 40.6353 107.521 40.1131C108.015 39.5918 108.262 38.9208 108.262 38.1758C108.262 37.2819 107.874 36.4621 107.204 35.9033C106.535 35.382 105.689 35.1583 104.878 35.382L102.022 36.127L104.278 40.8945L104.278 40.933ZM61.4845 27.9329C59.0879 28.7153 56.3733 29.4603 53.9767 30.1304C53.4479 30.2793 52.9192 30.1304 52.4958 29.7954C52.0725 29.4603 51.8263 28.939 51.8263 28.3428V27.5229C51.8263 26.9642 52.0733 26.4429 52.4958 26.0704C52.9192 25.7353 53.4825 25.5865 53.9767 25.7353C56.3733 26.3689 59.0879 27.1504 61.4845 27.8954V27.9329Z" fill="#FF9F1C"/>
</svg>
