<svg width="395" height="69" viewBox="0 0 395 69" fill="none" xmlns="http://www.w3.org/2000/svg">
<g clip-path="url(#clip0_110_2)">
<path d="M102.79 50V18.5H106.975V30.47H115.345V18.5H119.485V50H115.345V34.655H106.975V50H102.79ZM123.137 50V18.5H139.877V22.64H127.322V30.47H135.692L134.747 34.655H127.322V45.815H139.877V50H123.137ZM144.099 50V18.5H148.284V45.815H159.039V50H144.099ZM164.915 50C164.015 50 163.25 49.685 162.62 49.055C161.99 48.425 161.675 47.66 161.675 46.76V39.785L165.86 40.73V44.195C165.86 44.645 166.01 45.035 166.31 45.365C166.64 45.665 167.015 45.815 167.435 45.815H172.565C173.015 45.815 173.39 45.665 173.69 45.365C174.02 45.035 174.185 44.645 174.185 44.195V36.275C174.185 35.825 174.02 35.45 173.69 35.15C173.39 34.82 173.015 34.655 172.565 34.655H164.915C164.015 34.655 163.25 34.34 162.62 33.71C161.99 33.08 161.675 32.315 161.675 31.415V21.74C161.675 20.84 161.99 20.075 162.62 19.445C163.25 18.815 164.015 18.5 164.915 18.5H175.13C176.03 18.5 176.795 18.815 177.425 19.445C178.055 20.075 178.37 20.84 178.37 21.74V26.6L174.185 25.61V24.305C174.185 23.855 174.02 23.48 173.69 23.18C173.39 22.85 173.015 22.685 172.565 22.685H167.435C167.015 22.685 166.64 22.85 166.31 23.18C166.01 23.48 165.86 23.855 165.86 24.305V28.85C165.86 29.3 166.01 29.69 166.31 30.02C166.64 30.32 167.015 30.47 167.435 30.47H175.13C176.03 30.47 176.795 30.785 177.425 31.415C178.055 32.045 178.37 32.81 178.37 33.71V46.76C178.37 47.66 178.055 48.425 177.425 49.055C176.795 49.685 176.03 50 175.13 50H164.915ZM182.067 50V18.5H186.252V50H182.067ZM189.582 50V18.5H193.767L202.137 39.515V18.5H206.322V50H202.137L193.767 28.985V50H189.582ZM210.104 50V18.5H214.289V39.515L222.614 18.5H226.799L220.544 34.25L226.799 50H222.614L218.474 39.515L214.289 50H210.104ZM231.022 50V18.5H235.207V50H231.022ZM249.863 50C249.023 50 248.273 49.685 247.613 49.055C246.953 48.425 246.623 47.66 246.623 46.76V21.74C246.623 20.87 246.953 20.12 247.613 19.49C248.273 18.83 249.023 18.5 249.863 18.5H260.078C261.008 18.5 261.773 18.83 262.373 19.49C263.003 20.12 263.318 20.87 263.318 21.74V27.59L259.133 28.535V24.305C259.133 23.885 258.983 23.51 258.683 23.18C258.413 22.85 258.038 22.685 257.558 22.685H252.428C252.008 22.685 251.633 22.85 251.303 23.18C250.973 23.51 250.808 23.885 250.808 24.305V44.195C250.808 44.675 250.973 45.065 251.303 45.365C251.633 45.665 252.008 45.815 252.428 45.815H257.558C258.038 45.815 258.413 45.665 258.683 45.365C258.983 45.065 259.133 44.675 259.133 44.195V40.91L263.318 39.92V46.76C263.318 47.66 263.003 48.425 262.373 49.055C261.773 49.685 261.008 50 260.078 50H249.863ZM266.662 50V18.5H270.847V50H266.662ZM279.373 50V22.685H273.118V18.5H289.813V22.685H283.558V50H279.373ZM298.227 50V34.7L292.062 18.5H296.247L300.342 29.255L304.392 18.5H308.577L302.412 34.7V50H298.227ZM320.361 50V18.455H331.791C332.721 18.455 333.501 18.785 334.131 19.445C334.761 20.075 335.076 20.825 335.076 21.695V30.65C335.676 30.86 336.171 31.25 336.561 31.82C336.951 32.39 337.146 33.005 337.146 33.665V46.715C337.146 47.645 336.831 48.425 336.201 49.055C335.571 49.685 334.806 50 333.906 50H320.361ZM324.591 30.47H329.226C329.676 30.47 330.066 30.305 330.396 29.975C330.726 29.645 330.891 29.27 330.891 28.85V24.26C330.891 23.81 330.726 23.435 330.396 23.135C330.066 22.805 329.676 22.64 329.226 22.64H324.591V30.47ZM324.591 45.815H331.386C331.806 45.815 332.166 45.665 332.466 45.365C332.796 45.035 332.961 44.63 332.961 44.15V36.23C332.961 35.81 332.796 35.435 332.466 35.105C332.166 34.775 331.806 34.61 331.386 34.61H324.591V45.815ZM342.644 50V18.5H346.829V50H342.644ZM351.96 50V18.5H356.145V39.515L364.47 18.5H368.655L362.4 34.25L368.655 50H364.47L360.33 39.515L356.145 50H351.96ZM371.076 50V18.5H387.816V22.64H375.261V30.47H383.631L382.686 34.655H375.261V45.815H387.816V50H371.076Z" fill="#FF9F1C"/>
<path fill-rule="evenodd" clip-rule="evenodd" d="M65.5234 22.399H44.0651L42.0638 17.7724C44.5251 16.9971 46.8707 16.1493 47.9751 15.447C49.332 14.5748 49.677 13.4124 49.677 12.7101C49.677 12.0078 49.332 10.821 47.9751 9.97326C46.342 8.93193 41.9032 7.55103 38.407 6.6065C36.7051 6.14638 34.8882 6.55784 33.4851 7.6965C32.082 8.83518 31.277 10.6032 31.277 12.4686V13.0017C31.277 14.8671 32.082 16.6107 33.4851 17.7738C34.6351 18.7183 36.0838 19.1547 37.5332 19.0092L39.9251 24.5804L34.7964 30.6603C31.8295 28.5047 28.2414 27.2692 24.3776 27.2692C14.234 27.2438 6 35.9152 6 46.6221C6 57.3291 14.2337 66 24.4 66C33.7837 66 41.5356 58.5878 42.662 49.0444H45.4907C46.2495 51.2968 48.0438 53.0411 50.2744 53.6466L51.1713 56.4565C50.3201 56.8199 49.6995 57.692 49.6995 58.7089C49.6995 60.0412 50.7345 61.1312 51.9995 61.1312H56.5995C57.8645 61.1312 58.8995 60.0412 58.8995 58.7089C58.8995 57.3767 57.8645 56.2867 56.5995 56.2867H55.9557L54.9669 53.1622C57.29 51.9997 58.9 49.5044 58.9 46.5978C58.9 45.2899 58.5781 44.0788 58.0031 43.0131L68.3994 28.4078L69.3882 30.4667C64.4663 33.9545 61.2 39.8647 61.2 46.5752C61.2 57.2818 69.4338 65.9531 79.6 65.9531C89.7663 65.9531 98 57.2818 98 46.5752C98 35.8687 89.7663 27.1973 79.6 27.1973C77.4613 27.1973 75.4138 27.585 73.4819 28.2873L72.3319 25.8408C73.505 25.5742 74.5856 24.9686 75.46 24.0484C76.6331 22.813 77.3 21.1174 77.3 19.3738C77.3 17.3149 76.4031 15.3528 74.8619 14.0936C73.3206 12.8338 71.2969 12.3737 69.3882 12.8825L66.5363 13.6335L66.3751 13.2945C66.927 12.7857 67.5482 12.132 68.077 11.4778C68.7901 10.5814 69.3882 9.61242 69.6638 8.74097C70.1007 7.33635 69.94 6.05215 69.1576 4.98651C68.4445 4.01761 66.8345 3 63.5226 3H52.0226C50.7576 3 49.7226 4.09001 49.7226 5.42223C49.7226 6.75446 50.7576 7.84447 52.0226 7.84447H63.5226C63.9826 7.84447 64.4426 7.89313 64.8338 7.96558C64.6269 8.28025 64.3738 8.64358 64.1438 8.86203C63.1776 9.9277 62.1426 10.7511 62.1426 10.7511C61.2457 11.4534 60.9695 12.7132 61.4757 13.7789L65.5694 22.3778L65.5234 22.399ZM31.7135 34.2924C29.5972 32.8877 27.0903 32.088 24.3997 32.088C16.7866 32.088 10.5997 38.6036 10.5997 46.6214C10.5997 54.6391 16.7866 61.1548 24.3997 61.1548C31.231 61.1548 36.9116 55.9226 38.0157 49.0436H24.3997C23.5028 49.0436 22.6747 48.4867 22.3066 47.6146C21.9385 46.7425 22.0766 45.7256 22.6747 45.0226L31.7134 34.316L31.7135 34.2924ZM71.4574 34.8736C68.0306 37.5137 65.7993 41.8013 65.7993 46.5971C65.7993 54.6148 71.9862 61.1305 79.5993 61.1305C87.2124 61.1305 93.3993 54.6148 93.3993 46.5971C93.3993 38.5793 87.2124 32.0636 79.5993 32.0636C78.1962 32.0636 76.8393 32.2815 75.5743 32.6935L81.6693 45.507C82.2443 46.6938 81.7843 48.1715 80.6343 48.7527C79.5074 49.3582 78.1043 48.8738 77.5524 47.6627L71.4574 34.8492V34.8736ZM79.5993 53.8639C76.448 53.8639 73.803 51.6352 72.9756 48.6074C72.6306 47.3238 71.3424 46.5728 70.1237 46.9605C68.9049 47.3239 68.1918 48.6804 68.5599 49.964C69.9399 55.0019 74.3787 58.7084 79.5999 58.7084C80.8649 58.7084 81.8999 57.6184 81.8999 56.2861C81.8999 54.9539 80.8643 53.8639 79.5993 53.8639ZM27.9177 52.8463C26.8827 53.5006 25.6864 53.8639 24.3989 53.8639C22.6739 53.8639 21.1102 53.1859 19.8908 52.0959C18.9246 51.2238 17.4758 51.3206 16.6477 52.3382C15.8196 53.3557 15.9346 54.8815 16.8777 55.7536C18.9014 57.5947 21.5239 58.709 24.3989 58.709C26.5377 58.709 28.5621 58.0792 30.2871 57.0135C31.3683 56.3355 31.7358 54.8335 31.0921 53.6948C30.4483 52.5561 29.0221 52.169 27.9408 52.847L27.9177 52.8463ZM81.2776 39.5484C84.2676 40.3475 86.4757 43.2061 86.4757 46.5972C86.4757 47.9295 87.5108 49.0195 88.7757 49.0195C90.0407 49.0195 91.0757 47.9295 91.0757 46.5972C91.0757 40.9294 87.3726 36.1816 82.4045 34.8494C81.1626 34.5104 79.9208 35.3095 79.6214 36.5937C79.2995 37.9016 80.0583 39.2094 81.2776 39.5247V39.5484ZM52.0216 49.0195C53.2866 49.0195 54.2985 47.9295 54.2985 46.5972C54.2985 45.265 53.2635 44.175 51.9985 44.175C50.7335 44.175 49.6985 45.265 49.6985 46.5972C49.6985 47.9295 50.7104 48.9951 51.9754 49.0195H52.0442H52.0216ZM17.8437 44.3205C18.5568 42.0437 20.3274 40.2514 22.5355 39.5971C23.7543 39.2338 24.4674 37.9016 24.1224 36.6181C23.7774 35.3345 22.5124 34.5835 21.2937 34.9469C17.6137 36.0369 14.6699 38.9923 13.4737 42.7948C13.0825 44.0545 13.7268 45.4348 14.9224 45.8469C16.1186 46.2589 17.4293 45.5803 17.8205 44.3212L17.8437 44.3205ZM47.2153 41.3651L42.0403 29.3507L38.2453 33.8318C40.6141 36.6661 42.2016 40.2264 42.6616 44.175H45.4903C45.8584 43.1093 46.4565 42.1405 47.2153 41.3651ZM29.529 44.175L35.164 37.4895C36.6127 39.3786 37.6252 41.656 38.0158 44.175H29.529ZM46.181 27.2194L51.4247 39.3549C51.6316 39.3549 51.8159 39.3306 52.0228 39.3306C52.9197 39.3306 53.7709 39.5004 54.5528 39.8394L63.5228 27.2194H46.181ZM70.1246 21.1638H71.0446C71.4815 21.1638 71.9184 20.9702 72.2408 20.6307C72.5627 20.2917 72.7239 19.8553 72.7239 19.3709C72.7239 18.7897 72.4708 18.2566 72.0339 17.8932C71.597 17.5542 71.0451 17.4087 70.5158 17.5542L68.6527 18.0386L70.1245 21.1388L70.1246 21.1638ZM42.2026 12.7103C40.6389 13.2191 38.8676 13.7036 37.3039 14.1393C36.9589 14.2361 36.6139 14.1393 36.3377 13.9214C36.0615 13.7035 35.9008 13.3645 35.9008 12.9769V12.4437C35.9008 12.0804 36.062 11.7414 36.3377 11.4992C36.6139 11.2813 36.9815 11.1845 37.3039 11.2813C38.8676 11.6933 40.6389 12.2015 42.2026 12.6859V12.7103Z" fill="#FF9F1C"/>
</g>
<defs>
<clipPath id="clip0_110_2">
<rect width="395" height="69" fill="white"/>
</clipPath>
</defs>
</svg>
